<svg width="450" height="507" viewBox="0 0 450 507" fill="none" xmlns="http://www.w3.org/2000/svg">
<rect width="450" height="507" fill="white"/>
<g clip-path="url(#clip0_144_32)">
<path d="M225 50.4783C194.318 50.4783 170.348 62.4801 153.089 86.4837C135.831 110.487 127.202 141.171 127.202 178.535C126.989 224.957 141.051 261.755 169.389 288.929C173.011 292.553 174.29 297.195 173.224 302.856L165.874 319.16C163.53 324.595 160.067 328.841 155.487 331.898C150.906 334.955 141.264 339.314 126.562 344.976C125.923 345.202 112.447 349.844 86.1328 358.902C59.8189 367.96 45.8097 372.942 44.1051 373.848C26.2074 381.774 14.4886 390.039 8.94886 398.644C2.98295 412.91 0 449.029 0 507H450C450 449.029 447.017 412.91 441.051 398.644C435.511 390.039 423.793 381.774 405.895 373.848C404.19 372.942 390.181 367.96 363.867 358.902C337.553 349.844 324.077 345.202 323.438 344.976C308.736 339.314 299.094 334.955 294.513 331.898C289.933 328.841 286.47 324.595 284.126 319.16L276.776 302.856C275.71 297.195 276.989 292.553 280.611 288.929C308.949 261.755 323.011 224.957 322.798 178.535C322.798 141.171 314.169 110.487 296.911 86.4837C279.652 62.4801 255.682 50.4783 225 50.4783Z" fill="#545454"/>
</g>
<defs>
<clipPath id="clip0_144_32">
<rect width="450" height="500" fill="white" transform="translate(0 7)"/>
</clipPath>
</defs>
</svg>
