<svg width="37" height="41" viewBox="0 0 37 41" fill="none" xmlns="http://www.w3.org/2000/svg">
<g clip-path="url(#clip0_91:129)">
<path d="M14.1907 40.6293C13.9477 40.4854 13.7156 40.3144 13.4972 40.1185L13.511 40.1305L13.3657 40.0092C13.2029 39.9033 13.0584 39.7584 12.9406 39.5828C12.8228 39.4072 12.7339 39.2044 12.6791 38.9859L12.6764 38.9739C12.432 37.8581 12.1954 36.7397 11.9665 35.6187L11.8761 35.1763C11.724 34.5211 11.6122 33.8523 11.5417 33.1758L11.5349 33.1024C11.7706 30.4135 12.2214 27.9586 12.8724 25.6233L12.8148 25.859L2.27391 25.8795H2.23691C1.91764 25.8797 1.60199 25.7952 1.31089 25.6317C1.0198 25.4682 0.759899 25.2294 0.548428 24.9312C0.336957 24.633 0.178744 24.2822 0.0842749 23.902C-0.0101938 23.5218 -0.0387601 23.121 0.000469578 22.726L-0.000900792 22.7396C-0.0308088 22.1412 0.0672226 21.5436 0.283182 21.0079C0.499141 20.4721 0.82529 20.0175 1.22832 19.6902L1.23928 19.6817C0.855618 18.9797 0.676211 18.1351 0.730877 17.2883V17.3003C0.682837 16.6304 0.807856 15.9589 1.08768 15.3839C1.3675 14.8088 1.78747 14.3604 2.28625 14.104L2.30269 14.0972C1.9971 13.4149 1.85535 12.6375 1.89432 11.8575V11.8678C1.86386 11.2834 1.96044 10.6996 2.17389 10.178C2.38733 9.65634 2.70974 9.21615 3.1071 8.90383L3.11806 8.89529C2.83684 8.11254 2.73077 7.24951 2.8111 6.39771L2.80973 6.41992V6.10387C2.82937 5.68311 2.9169 5.27161 3.0671 4.89401C3.21729 4.51641 3.42706 4.18046 3.68384 3.90629C3.94062 3.63212 4.23914 3.42535 4.56152 3.29836C4.88391 3.17137 5.22353 3.12678 5.56006 3.16725L5.55047 3.16554H19.7653C19.8352 3.16554 19.9092 3.16554 19.9846 3.15358C20.0821 3.14339 20.18 3.13769 20.2778 3.1365H20.2998C20.4423 3.1365 20.5793 3.16042 20.7095 3.20483L20.6985 3.20142C20.9534 3.30904 21.1754 3.45254 21.3741 3.63363L21.3673 3.62679L21.5043 3.73442C21.825 3.98042 22.1374 4.2435 22.4499 4.50487L22.5897 4.62787C22.7692 4.78846 22.8555 4.86021 22.9487 4.85508C23.2776 4.84654 23.6065 4.84312 23.9354 4.838V20.4778L23.9532 21.7915C23.3351 22.2835 22.7651 22.7482 22.5924 22.9258C22.3828 23.4592 22.1433 23.9736 21.8757 24.465L21.899 24.4206C21.7825 24.6495 21.666 24.8733 21.5591 25.104L19.1898 30.041C19.0801 30.2734 18.9609 30.504 18.8417 30.7363C18.617 31.1805 18.3908 31.6247 18.2045 32.0859C18.0966 32.3619 18.0588 32.6725 18.0962 32.976L18.0948 32.9674L18.1031 38.2974C18.0629 38.6687 17.959 39.0247 17.7984 39.3414C17.6378 39.658 17.4244 39.9277 17.1726 40.1322L17.1644 40.139C16.7257 40.6312 16.1697 40.9306 15.5816 40.9915H15.4541C15.0113 40.987 14.5751 40.8574 14.1783 40.6122L14.1948 40.6225L14.1907 40.6293ZM24.8247 22.2527V0H34.4392C34.6722 0 34.8641 0.222083 34.886 0.503958V0.505667L36.5551 21.6343L36.5578 21.689C36.5578 21.7628 36.5462 21.8359 36.5235 21.9041C36.5009 21.9723 36.4677 22.0342 36.4258 22.0864C36.3839 22.1386 36.3342 22.18 36.2795 22.2083C36.2248 22.2365 36.1662 22.251 36.107 22.251L24.8247 22.2527ZM29.791 19.2461C29.791 19.5553 29.9924 19.8064 30.2404 19.8064H33.6814C33.7406 19.8064 33.7993 19.7919 33.854 19.7636C33.9087 19.7354 33.9584 19.694 34.0002 19.6418C34.0421 19.5896 34.0753 19.5276 34.098 19.4595C34.1206 19.3913 34.1323 19.3182 34.1323 19.2444C34.1323 19.1706 34.1206 19.0975 34.098 19.0293C34.0753 18.9611 34.0421 18.8991 34.0002 18.847C33.9584 18.7948 33.9087 18.7534 33.854 18.7251C33.7993 18.6969 33.7406 18.6823 33.6814 18.6823H30.2418C30.1828 18.6821 30.1244 18.6964 30.0699 18.7244C30.0154 18.7523 29.9658 18.7934 29.9241 18.8453C29.8823 18.8972 29.8492 18.9589 29.8266 19.0268C29.804 19.0947 29.7923 19.1675 29.7923 19.241L29.791 19.2461ZM27.2242 19.2461C27.2242 19.5553 27.4257 19.8064 27.6737 19.8064H28.7344C28.7936 19.8064 28.8522 19.7919 28.9069 19.7636C28.9616 19.7354 29.0113 19.694 29.0532 19.6418C29.0951 19.5896 29.1283 19.5276 29.1509 19.4595C29.1736 19.3913 29.1852 19.3182 29.1852 19.2444C29.1852 19.1706 29.1736 19.0975 29.1509 19.0293C29.1283 18.9611 29.0951 18.8991 29.0532 18.847C29.0113 18.7948 28.9616 18.7534 28.9069 18.7251C28.8522 18.6969 28.7936 18.6823 28.7344 18.6823H27.6737C27.6149 18.6823 27.5566 18.6968 27.5022 18.7249C27.4479 18.7529 27.3985 18.7941 27.3569 18.846C27.3153 18.8978 27.2822 18.9594 27.2597 19.0272C27.2372 19.095 27.2256 19.1676 27.2256 19.241L27.2242 19.2461ZM26.2732 5.57942C26.2596 5.88095 26.2955 6.18278 26.3786 6.46645C26.4617 6.75012 26.5904 7.00967 26.7568 7.22922C26.9231 7.44878 27.1237 7.62373 27.3461 7.74338C27.5686 7.86303 27.8082 7.92485 28.0505 7.92509C28.2928 7.92532 28.5325 7.86395 28.7551 7.74473C28.9777 7.62551 29.1785 7.45095 29.3451 7.23171C29.5117 7.01247 29.6407 6.75317 29.7242 6.46967C29.8077 6.18616 29.8439 5.88439 29.8307 5.58283C29.8031 5.0187 29.604 4.4889 29.274 4.10137C28.944 3.71384 28.5079 3.49773 28.0546 3.49708C27.6012 3.49643 27.1647 3.71128 26.834 4.09786C26.5033 4.48444 26.3032 5.01366 26.2746 5.57771L26.2732 5.57942ZM27.1735 5.57942C27.1736 5.43584 27.1964 5.29369 27.2406 5.16108C27.2847 5.02847 27.3494 4.90801 27.4309 4.80656C27.5124 4.70512 27.6091 4.62468 27.7156 4.56984C27.822 4.51499 27.9361 4.48682 28.0513 4.48694C28.1664 4.48705 28.2805 4.51544 28.3868 4.57049C28.4932 4.62554 28.5898 4.70617 28.6712 4.80777C28.7526 4.90938 28.8171 5.02997 28.8611 5.16266C28.9051 5.29535 28.9277 5.43755 28.9276 5.58112C28.9185 5.86339 28.8221 6.13029 28.6586 6.32589C28.4951 6.5215 28.2772 6.63062 28.0506 6.6304C27.824 6.63018 27.6063 6.52063 27.443 6.32471C27.2798 6.12878 27.1837 5.86169 27.1749 5.57942V5.57771L27.1735 5.57942Z" fill="black"/>
</g>
<defs>
<clipPath id="clip0_91:129">
<rect width="37" height="41" fill="white"/>
</clipPath>
</defs>
</svg>
