<svg width="47" height="47" viewBox="0 0 47 47" fill="none" xmlns="http://www.w3.org/2000/svg">
<path d="M30.5439 23.4971C30.5439 27.2309 27.3845 30.2577 23.4872 30.2577C19.59 30.2577 16.4307 27.2309 16.4307 23.4971C16.4307 19.7632 19.59 16.7364 23.4872 16.7364C27.3845 16.7364 30.5439 19.7633 30.5439 23.4971ZM23.5 9.42043C19.4649 9.43832 15.2823 10.4207 11.3229 12.3014C8.38316 13.7554 5.51819 15.8067 3.03126 18.3386C1.80981 19.6311 0.251881 21.5025 0 23.4993C0.0297667 25.2289 1.88509 27.3638 3.03126 28.66C5.36337 31.0925 8.15372 33.0865 11.3229 34.6987C15.0152 36.4906 19.1021 37.5223 23.5 37.5796C27.539 37.5615 31.7206 36.5678 35.6756 34.6987C38.6154 33.2447 41.4818 31.1919 43.9687 28.66C45.1901 27.3675 46.7481 25.496 47 23.4993C46.9702 21.7696 45.1149 19.6347 43.9687 18.3385C41.6366 15.906 38.8448 13.9135 35.6756 12.3013C31.9852 10.5108 27.8883 9.48619 23.5 9.42043ZM23.497 12.916C29.6117 12.916 34.5685 17.6549 34.5685 23.5008C34.5685 29.3467 29.6117 34.0856 23.497 34.0856C17.3824 34.0856 12.4256 29.3466 12.4256 23.5008C12.4256 17.6549 17.3824 12.916 23.497 12.916Z" fill="black"/>
</svg>
