<svg width="37" height="41" viewBox="0 0 37 41" fill="none" xmlns="http://www.w3.org/2000/svg">
<g clip-path="url(#clip0_91:127)">
<path d="M2.12036 40.9993C2.00899 40.9988 1.90169 40.9471 1.819 40.8541C1.73631 40.7611 1.68406 40.6334 1.67225 40.4953V40.4936L0.000393808 19.365L-0.000976562 19.312C-0.000976562 19.0011 0.200468 18.75 0.449875 18.75H11.7321V41.001L2.12036 40.9993ZM6.7248 35.4216V35.4233C6.7248 35.8629 6.82936 36.2926 7.02527 36.6581C7.22117 37.0236 7.49961 37.3084 7.82539 37.4767C8.15116 37.6449 8.50963 37.6889 8.85547 37.6031C9.20131 37.5174 9.51898 37.3057 9.76832 36.9949C10.0177 36.684 10.1875 36.288 10.2562 35.8569C10.325 35.4258 10.2897 34.9789 10.1548 34.5728C10.0199 34.1666 9.79134 33.8195 9.49815 33.5753C9.20496 33.3311 8.86027 33.2008 8.50765 33.2008H8.50491C7.51962 33.2008 6.72206 34.195 6.72069 35.4233L6.7248 35.4216ZM7.38258 21.7549C7.38258 22.0641 7.58402 22.3153 7.83343 22.3153H8.88039C8.9996 22.3153 9.11393 22.2562 9.19823 22.1511C9.28252 22.0461 9.32987 21.9035 9.32987 21.7549C9.32987 21.6063 9.28252 21.4638 9.19823 21.3587C9.11393 21.2536 8.9996 21.1946 8.88039 21.1946H7.82521C7.70564 21.1946 7.59096 21.2538 7.50641 21.3592C7.42186 21.4646 7.37436 21.6076 7.37436 21.7566V21.7618L7.38258 21.7549ZM2.43554 21.7549C2.43554 22.0641 2.63699 22.3153 2.88502 22.3153H6.3178C6.43701 22.3153 6.55134 22.2562 6.63563 22.1511C6.71993 22.0461 6.76728 21.9035 6.76728 21.7549C6.76728 21.6063 6.71993 21.4638 6.63563 21.3587C6.55134 21.2536 6.43701 21.1946 6.3178 21.1946H2.8768C2.75759 21.1946 2.64326 21.2536 2.55897 21.3587C2.47468 21.4638 2.42732 21.6063 2.42732 21.7549V21.76L2.43554 21.7549ZM15.8652 37.7928C15.6237 37.6911 15.3955 37.5454 15.1882 37.3605L15.1964 37.3674L15.0594 37.2598C14.7402 37.0101 14.4249 36.7527 14.1138 36.4876L13.9754 36.3663C13.7945 36.204 13.7096 36.1323 13.6164 36.1391C13.2875 36.1476 12.9586 36.151 12.6297 36.1562V20.5164L12.6119 19.201C13.2299 18.7107 13.8 18.2443 13.9713 18.0666C14.2043 17.4824 14.4345 16.9938 14.6894 16.5257L14.6661 16.5718C14.7826 16.3446 14.8991 16.1191 15.0059 15.8953L17.3685 10.9514C17.4781 10.7191 17.5973 10.4868 17.7165 10.2544C17.9152 9.88542 18.1263 9.44467 18.3195 8.99026L18.3524 8.90655C18.4606 8.63065 18.4984 8.32001 18.4607 8.01651L18.462 8.02505L18.4538 2.69505C18.5401 1.91947 18.8909 1.26347 19.3857 0.863715L19.3939 0.856882C19.8349 0.361676 20.3946 0.0614698 20.9862 0.00271541H20.9958L21.0822 0.00100708C21.5495 0.00100708 21.9907 0.139382 22.3827 0.383674L22.3662 0.373424C22.6279 0.53059 22.8513 0.698007 23.061 0.885924L23.0473 0.873965L23.1925 0.993549C23.5228 1.21051 23.7695 1.57609 23.8791 2.01855L23.8818 2.03051C24.1381 3.21951 24.3724 4.30088 24.5903 5.38567L24.6808 5.82813C24.8192 6.40896 24.9384 7.11109 25.0151 7.8303L25.022 7.90205C24.7877 10.591 24.3368 13.0441 23.6845 15.3811L23.7421 15.1454L34.2843 15.1266H34.3227C34.6421 15.1266 34.9578 15.2114 35.2489 15.3752C35.5399 15.539 35.7997 15.7781 36.011 16.0767C36.2223 16.3753 36.3802 16.7265 36.4742 17.107C36.5682 17.4875 36.5962 17.8886 36.5564 18.2836L36.5578 18.2699C36.5873 18.8668 36.4894 19.4627 36.2742 19.9971C36.0591 20.5315 35.7342 20.9853 35.3327 21.3125L35.3217 21.321C35.7062 22.022 35.8862 22.8662 35.8315 23.7127V23.7007C35.8795 24.3715 35.7542 25.0438 35.4738 25.6195C35.1935 26.1952 34.7729 26.644 34.2734 26.9004L34.2569 26.9073C34.5634 27.5885 34.7057 28.3656 34.6667 29.1452V29.1349C34.6965 29.7189 34.5994 30.3021 34.3858 30.8231C34.1721 31.3441 33.8497 31.7836 33.4525 32.0955L33.4415 32.104C33.7214 32.8854 33.8275 33.7464 33.7485 34.5965L33.7499 34.5743V34.8954C33.7302 35.3162 33.6427 35.7277 33.4925 36.1053C33.3423 36.4829 33.1325 36.8188 32.8758 37.093C32.619 37.3672 32.3205 37.5739 31.9981 37.7009C31.6757 37.8279 31.3361 37.8725 30.9995 37.832L31.0091 37.8338H24.9398L24.9192 37.8355L24.8973 37.8338H24.8987H16.7998C16.7299 37.8338 16.6572 37.8338 16.5805 37.8474C16.4873 37.8543 16.3887 37.8645 16.2872 37.8645H16.2667C16.1283 37.8647 15.9905 37.8417 15.8569 37.7962L15.8679 37.7996L15.8652 37.7928ZM7.62239 35.4233C7.62248 35.2796 7.64528 35.1373 7.68947 35.0046C7.73366 34.8719 7.79839 34.7514 7.87996 34.6498C7.96152 34.5483 8.05834 34.4678 8.16486 34.4129C8.27138 34.358 8.38554 34.3299 8.5008 34.33C8.61607 34.3301 8.73018 34.3585 8.83664 34.4136C8.94309 34.4687 9.0398 34.5494 9.12124 34.651C9.20268 34.7527 9.26726 34.8734 9.31129 35.0062C9.35531 35.139 9.37793 35.2813 9.37784 35.425C9.37766 35.7152 9.28501 35.9934 9.12027 36.1985C8.95554 36.4035 8.73222 36.5186 8.49943 36.5183C8.26664 36.5181 8.04346 36.4026 7.87899 36.1973C7.71451 35.9919 7.62221 35.7135 7.62239 35.4233Z" fill="black"/>
</g>
<defs>
<clipPath id="clip0_91:127">
<rect width="37" height="41" fill="white"/>
</clipPath>
</defs>
</svg>
