<svg width="32" height="33" viewBox="0 0 32 33" fill="none" xmlns="http://www.w3.org/2000/svg">
<path d="M3.33605 29.0339C3.337 29.1043 3.3514 29.1738 3.37842 29.2385C3.40544 29.3032 3.44455 29.3617 3.49352 29.4108C3.54249 29.4599 3.60036 29.4986 3.66382 29.5246C3.72728 29.5507 3.79509 29.5635 3.86338 29.5625H28.1347C28.2031 29.5636 28.2709 29.5508 28.3345 29.5248C28.398 29.4988 28.456 29.4602 28.505 29.4111C28.554 29.362 28.5932 29.3034 28.6203 29.2387C28.6473 29.1739 28.6618 29.1043 28.6627 29.0339V28.4027C28.6747 28.2123 28.6994 27.2635 28.0927 26.2137C27.71 25.5517 27.1547 24.9804 26.442 24.5142C25.58 23.9505 24.4834 23.5428 23.1567 23.2974C22.4833 23.1996 21.8152 23.0656 21.1554 22.8959C19.4007 22.4339 19.2474 22.0248 19.246 22.0207C19.2359 21.9803 19.2211 21.9413 19.202 21.9045C19.1874 21.8289 19.152 21.5415 19.22 20.7722C19.392 18.8176 20.4087 17.6626 21.2254 16.7345C21.4827 16.4423 21.726 16.1652 21.9134 15.8944C22.722 14.7256 22.7967 13.3953 22.8 13.3128C22.8031 13.1666 22.7835 13.0209 22.742 12.881C22.662 12.6267 22.5134 12.4685 22.404 12.3517C22.3782 12.3249 22.3531 12.2974 22.3287 12.2692C22.3207 12.2595 22.2994 12.2334 22.3187 12.1021C22.3841 11.6791 22.4293 11.253 22.454 10.8254C22.4914 10.1365 22.52 9.10667 22.3474 8.10361C22.322 7.91202 22.2837 7.7225 22.2327 7.53642C22.0507 6.84617 21.7587 6.2563 21.3527 5.76955C21.2827 5.69048 19.584 3.84455 14.6527 3.46642C13.9707 3.41417 13.2967 3.44236 12.6327 3.47742C12.4363 3.48192 12.2409 3.5068 12.0494 3.55167C11.54 3.68711 11.404 4.01986 11.3687 4.20617C11.3094 4.51555 11.4134 4.7548 11.482 4.9143C11.492 4.93698 11.5047 4.96517 11.4827 5.03942C11.3687 5.2223 11.188 5.3873 11.0047 5.54336C10.9514 5.58942 9.71538 6.68942 9.64738 8.12561C9.46405 9.21805 9.47738 10.9196 9.69405 12.0959C9.70738 12.1612 9.72538 12.2575 9.69538 12.3228C9.46205 12.538 9.19805 12.782 9.19871 13.3389C9.20138 13.3953 9.27671 14.7249 10.0854 15.8944C10.272 16.1652 10.5154 16.4416 10.772 16.7338L10.7734 16.7345C11.59 17.6626 12.6067 18.8176 12.7787 20.7715C12.846 21.5415 12.8107 21.8282 12.7967 21.9045C12.7774 21.9412 12.7624 21.9802 12.752 22.0207C12.7514 22.0248 12.5987 22.4325 10.852 22.8938C9.84405 23.1599 8.85205 23.296 8.82205 23.2994C7.53271 23.5242 6.44271 23.9223 5.58205 24.4826C4.87205 24.9453 4.31538 25.5187 3.92871 26.1855C3.31005 27.2512 3.32671 28.2219 3.33538 28.3993V29.0339H3.33605Z" stroke="black" stroke-width="4" stroke-linejoin="round"/>
</svg>
